<svg xmlns="http://www.w3.org/2000/svg" xmlns:xlink="http://www.w3.org/1999/xlink" width="332.29" height="302.19" viewBox="0 0 332.29 302.19">
  <defs>
    <radialGradient  cx="167.41" cy="171.31" r="148.86" gradientUnits="userSpaceOnUse">
      <stop offset="0.44" stop-color="#c700ff"/>
      <stop offset="0.64" stop-color="#7b00a6"/>
      <stop offset="0.81" stop-color="#3b005a"/>
      <stop offset="0.94" stop-color="#13002c"/>
      <stop offset="1" stop-color="#04001a"/>
    </radialGradient>
    <radialGradient  cx="149.93" cy="172.43" r="122.42" gradientUnits="userSpaceOnUse">
      <stop offset="0.71" stop-color="#c700ff"/>
      <stop offset="0.72" stop-color="#bd00f2"/>
      <stop offset="0.83" stop-color="#6d008c"/>
      <stop offset="0.91" stop-color="#320041"/>
      <stop offset="0.97" stop-color="#0e0012"/>
      <stop offset="1"/>
    </radialGradient>
    <radialGradient  cx="155.07" cy="151.02" r="151.02" gradientTransform="translate(152.21 -65.42) rotate(45)" gradientUnits="userSpaceOnUse">
      <stop offset="0.36" stop-color="#c700ff"/>
      <stop offset="0.39" stop-color="#bd00f2"/>
      <stop offset="0.62" stop-color="#6d008c"/>
      <stop offset="0.8" stop-color="#320041"/>
      <stop offset="0.93" stop-color="#0e0012"/>
      <stop offset="1"/>
    </radialGradient>
    <radialGradient  cx="155.07" cy="155.75" r="119" gradientTransform="translate(155.55 -64.03) rotate(45)" gradientUnits="userSpaceOnUse">
      <stop offset="0.65" stop-color="#ff74ff"/>
      <stop offset="0.66" stop-color="#f26ef2"/>
      <stop offset="0.79" stop-color="#8c408c"/>
      <stop offset="0.89" stop-color="#411d41"/>
      <stop offset="0.96" stop-color="#120812"/>
      <stop offset="1"/>
    </radialGradient>
    <radialGradient  cx="160.41" cy="193.21" r="89.76" gradientUnits="userSpaceOnUse">
      <stop offset="0" stop-color="#ff56ff"/>
      <stop offset="0.22" stop-color="#fb52fd"/>
      <stop offset="0.43" stop-color="#f046f6"/>
      <stop offset="0.65" stop-color="#de33ea"/>
      <stop offset="0.86" stop-color="#c417da"/>
      <stop offset="1" stop-color="#ae00cc"/>
    </radialGradient>
    <radialGradient  cx="160.35" cy="191.7" r="84.68" gradientTransform="translate(275.28 -34.39) rotate(76.72)" gradientUnits="userSpaceOnUse">
      <stop offset="0" stop-color="#ffb5ff"/>
      <stop offset="0.13" stop-color="#ffb1fe"/>
      <stop offset="0.26" stop-color="#ffa5fd"/>
      <stop offset="0.39" stop-color="#ff92f9"/>
      <stop offset="0.52" stop-color="#ff76f5"/>
      <stop offset="0.64" stop-color="#ff53f0"/>
      <stop offset="0.73" stop-color="#ff35eb"/>
      <stop offset="0.83" stop-color="#ef26e2"/>
      <stop offset="1" stop-color="#c900cc"/>
    </radialGradient>
    <radialGradient  cx="110.48" cy="198.78" r="33.63" gradientUnits="userSpaceOnUse">
      <stop offset="0" stop-color="#ff25ff"/>
      <stop offset="1" stop-color="#cf00cc"/>
    </radialGradient>
    <radialGradient id="_ÂÁ_Ï_ÌÌ_È_ËÂÌÚ_174-2" cx="194.73" cy="154.8" r="36.57" xlink:href="#_ÂÁ_Ï_ÌÌ_È_ËÂÌÚ_174"/>
    <radialGradient id="_ÂÁ_Ï_ÌÌ_È_ËÂÌÚ_174-3" cx="189.23" cy="223.9" r="28.08" xlink:href="#_ÂÁ_Ï_ÌÌ_È_ËÂÌÚ_174"/>
    <radialGradient id="_ÂÁ_Ï_ÌÌ_È_ËÂÌÚ_174-4" cx="152.63" cy="141.96" r="9.83" xlink:href="#_ÂÁ_Ï_ÌÌ_È_ËÂÌÚ_174"/>
    <radialGradient id="_ÂÁ_Ï_ÌÌ_È_ËÂÌÚ_178" data-name="¡ÂÁ˚ÏˇÌÌ˚È „‡‰ËÂÌÚ 178" cx="138.48" cy="120.71" r="131.14" gradientUnits="userSpaceOnUse">
      <stop offset="0" stop-color="#ffd6ff"/>
      <stop offset="0.12" stop-color="#fdd2fd"/>
      <stop offset="0.24" stop-color="#f8c6f8"/>
      <stop offset="0.36" stop-color="#efb3ee"/>
      <stop offset="0.48" stop-color="#e397e1"/>
      <stop offset="0.59" stop-color="#d373d1"/>
      <stop offset="0.71" stop-color="#bf48bc"/>
      <stop offset="0.82" stop-color="#a915a4"/>
      <stop offset="0.87" stop-color="#9f009a"/>
      <stop offset="0.99" stop-color="#7e43ff"/>
    </radialGradient>
    <radialGradient id="_ÂÁ_Ï_ÌÌ_È_ËÂÌÚ_174-5" cx="162.5" cy="229.57" r="23.18" xlink:href="#_ÂÁ_Ï_ÌÌ_È_ËÂÌÚ_174"/>
    <radialGradient id="_ÂÁ_Ï_ÌÌ_È_ËÂÌÚ_196" data-name="¡ÂÁ˚ÏˇÌÌ˚È „‡‰ËÂÌÚ 196" cx="160.81" cy="152.04" r="93.6" gradientTransform="translate(0 7.15) scale(1 0.97)" gradientUnits="userSpaceOnUse">
      <stop offset="0.85"/>
      <stop offset="0.86" stop-color="#0e0012"/>
      <stop offset="0.9" stop-color="#320041"/>
      <stop offset="0.94" stop-color="#6d008c"/>
      <stop offset="0.99" stop-color="#bd00f2"/>
      <stop offset="1" stop-color="#c700ff"/>
    </radialGradient>
    <radialGradient id="_ÂÁ_Ï_ÌÌ_È_ËÂÌÚ_217" data-name="¡ÂÁ˚ÏˇÌÌ˚È „‡‰ËÂÌÚ 217" cx="-23.33" cy="207.25" r="35.01" gradientTransform="translate(71.39 -142.42) scale(1.2 1.42)" gradientUnits="userSpaceOnUse">
      <stop offset="0" stop-color="#f0f"/>
      <stop offset="0.04" stop-color="#f200f2"/>
      <stop offset="0.4" stop-color="#8c008c"/>
      <stop offset="0.69" stop-color="#410041"/>
      <stop offset="0.9" stop-color="#120012"/>
      <stop offset="1"/>
    </radialGradient>
    <radialGradient id="_ÂÁ_Ï_ÌÌ_È_ËÂÌÚ_217-2" cx="144.44" cy="160.62" r="26.55" xlink:href="#_ÂÁ_Ï_ÌÌ_È_ËÂÌÚ_217"/>
    <radialGradient id="_ÂÁ_Ï_ÌÌ_È_ËÂÌÚ_217-3" cx="112.89" cy="360.61" r="26.55" gradientTransform="matrix(1.15, -0.34, 0.16, 0.52, -4.12, 110.42)" xlink:href="#_ÂÁ_Ï_ÌÌ_È_ËÂÌÚ_217"/>
    <radialGradient id="_ÂÁ_Ï_ÌÌ_È_ËÂÌÚ_227" data-name="¡ÂÁ˚ÏˇÌÌ˚È „‡‰ËÂÌÚ 227" cx="-290.04" cy="-51.69" r="36.89" gradientTransform="matrix(0, 1.2, -1.42, 0, 51.77, 396.63)" gradientUnits="userSpaceOnUse">
      <stop offset="0" stop-color="#f0f"/>
      <stop offset="0.11" stop-color="#d500d5"/>
      <stop offset="0.29" stop-color="#950095"/>
      <stop offset="0.47" stop-color="#600060"/>
      <stop offset="0.64" stop-color="#360036"/>
      <stop offset="0.78" stop-color="#190019"/>
      <stop offset="0.91" stop-color="#060006"/>
      <stop offset="1"/>
    </radialGradient>
    <radialGradient id="_ÂÁ_Ï_ÌÌ_È_ËÂÌÚ_226" data-name="¡ÂÁ˚ÏˇÌÌ˚È „‡‰ËÂÌÚ 226" cx="-23.33" cy="207.25" r="24.63" gradientTransform="translate(71.39 -142.42) scale(1.2 1.42)" gradientUnits="userSpaceOnUse">
      <stop offset="0" stop-color="#ffb8ff"/>
      <stop offset="0.04" stop-color="#f2aff2"/>
      <stop offset="0.4" stop-color="#8c658c"/>
      <stop offset="0.69" stop-color="#412f41"/>
      <stop offset="0.9" stop-color="#120d12"/>
      <stop offset="1"/>
    </radialGradient>
    <radialGradient id="_ÂÁ_Ï_ÌÌ_È_ËÂÌÚ_226-2" cx="144.44" cy="159.81" r="12.65" xlink:href="#_ÂÁ_Ï_ÌÌ_È_ËÂÌÚ_226"/>
    <radialGradient id="_ÂÁ_Ï_ÌÌ_È_ËÂÌÚ_226-3" cx="-291.91" cy="-53.12" r="12.65" gradientTransform="matrix(0.6, 1.04, -1.23, 0.71, 232.78, 386.96)" xlink:href="#_ÂÁ_Ï_ÌÌ_È_ËÂÌÚ_226"/>
    <radialGradient id="_ÂÁ_Ï_ÌÌ_È_ËÂÌÚ_217-4" cx="168.05" cy="150.55" r="35.01" gradientTransform="matrix(0.96, -0.29, 0.16, 0.55, -59.71, 19.58)" xlink:href="#_ÂÁ_Ï_ÌÌ_È_ËÂÌÚ_217"/>
  </defs>
  <g style="isolation: isolate">
    <g id="Layer_2" data-name="Layer 2">
      <g id="Layer_3" data-name="Layer 3">
        <g>
          <path d="M93.82,255.87c35.32-28.75-29.18-26.72-54.32-35.93S32.94,206.37,38,197.79s-12-6.63-25.87-17.08-13.12-33.85,4.37-65.15,34.35-11.08,39,6,.1-1.51,27.88-27.14,22.09-20.26,20.75-30.36,9.29-31.49,50.91-20.75,15,18.14,49.42,19.46,23.77,28.37,54.75,38.94-4,19.9,0,38.56,10.57,17.42,30.79-10.94,4.92-41.51-8.2-36c0,0,2.74-7,30.61-6.24s27.33,87.06-7.65,112c-21.89,15.61-44.46-13.33-50.38-3.51s-30.08,69.66-83.54,74.55-51.14-9.47-58.37-7.58,10.64,11,12.37,10.83-49.11,29.32-68.79,28.78-7.26-30.33,7.85-46.32,12.23,2.08,11.76,6.71S93.82,255.87,93.82,255.87Z" fill-rule="evenodd" opacity="0.5" fill="url(#_ÂÁ_Ï_ÌÌ_È_ËÂÌÚ_221)" style="mix-blend-mode: screen"/>
          <path d="M254.41,133.67c.08-24.6,3.82-17.85,10.47-10.12s12.67-6.27-2.09-34.54-48.37-25.66-48.07-25.47,22.75,16,23.56,28.65S234.46,70.42,201.66,60s-34.51,5.27-59.57-5.29-27.46-5.12-41,19S70.13,98.39,67.22,127.4s-11.93,21.36-12.17,2.42-12,12.87-23.66,31.21S40.5,184.65,50,192.76s6.4-12.29,14-9.74-7.52,11.51-3.45,28.53S101,228,106.82,241.4,98.44,263.79,85,262.58s-16,12.64-1.82,32.68c0,0-.37-18.95,20.77-24.05s.74-2.9,1.82-10.57,15-16,29.72-8.71,63.78,10.29,99.93-35.69S254.41,133.67,254.41,133.67Z" fill-rule="evenodd" fill="url(#_ÂÁ_Ï_ÌÌ_È_ËÂÌÚ_211)" style="mix-blend-mode: screen"/>
          <circle cx="155.07" cy="151.02" r="151.02" transform="translate(-61.37 153.88) rotate(-45)" fill="url(#_ÂÁ_Ï_ÌÌ_È_ËÂÌÚ_222)" style="mix-blend-mode: screen"/>
          <circle cx="155.07" cy="155.75" r="119" transform="translate(-64.71 155.27) rotate(-45)" fill="url(#_ÂÁ_Ï_ÌÌ_È_ËÂÌÚ_223)" style="mix-blend-mode: screen"/>
          <path d="M268.37,151c0,14.51-3.19,21.68-5.08,18.21-2.46-4.49-1.91-18.73-7.11-5.61s-1.63,21.59-16.09,45.91S191.42,246.7,173.65,248s-28.42-1.3-31.62-1,4,3-4.19,1-27.88,2.52-27.76-8.94-28.26-28.43-34.39-41.27-17.93-16.4-7.81-64.12,31.77-45.21,42.27-64c1.56-2.77,17.58-1.4,22.78-8s9-1.59,31.43,1.2,45.09-3.33,63.23,22.9,19.85,49.21,19.85,32.88-9.84-21.12-6-19.48c2.3,1,10.2,5.56,16.73,14.33-7.47.63-8,20.9-2.38,33C261.79,159.45,265.5,160.36,268.37,151Z" fill="#fff" fill-rule="evenodd"/>
          <circle cx="159.37" cy="156.13" r="89.76" fill="url(#_ÂÁ_Ï_ÌÌ_È_ËÂÌÚ_102)"/>
          <circle cx="159.37" cy="156.72" r="84.68" transform="translate(-29.77 275.82) rotate(-76.72)" fill="url(#_ÂÁ_Ï_ÌÌ_È_ËÂÌÚ_208)"/>
          <path d="M187.22,147.86c1-10.47-24.13-32.75-43.35-22.62s-15.68,46.84-10.94,61.24,39.19,1.83,48.56-15.39S187.22,147.86,187.22,147.86Z" fill="#9f0072" fill-rule="evenodd" opacity="0.3" style="mix-blend-mode: multiply"/>
          <path d="M80.45,179C68.26,139.69,91,135.29,106.87,124s19.68,8.1,18.58,34.75-6.89,45-22.59,37.22l-19.08-9.48s5,7.61,9.1,12.64,1.9-2.13,3.06-4.08,11.2,7.61,29.69,9.12-2.36-19.68,3.1-53.93,23.72-37.32,52.76-16.56-7.42,61.42-23.79,68.78,17.54,27.08,26.36,29-28.91-13.06-28-23.17,11.32-1.19,25.42-13.21,3-12.63,9-25.81,51.08,1.76,32.72-61.91C215,78.74,196.74,71,184.06,70.81S199.61,68.6,214,93.74s-2.74,53.94-11.66,56.3S190.5,129.27,165,120.71s-22,2.4-27.87-17.11S107.6,89.19,105.05,90.46s21.5-5.28,28.24,11.12-1.64,32.79-4,35.16-3.64-17.9-14-16.78S94.48,130.22,86.1,133.67s-9.1-9.32-9.1-9.32S71.31,153.33,80.45,179Z" fill="#fff" fill-rule="evenodd" style="mix-blend-mode: soft-light"/>
          <path d="M75.69,156.72s2.44,27,20.89,41.61,41,12.57,43.86,11.89,4.18-6.15,4.18-6.15,1.17,5.68-.75,9.74-30.45,5-51.8-13.29S75.69,156.72,75.69,156.72Z" fill-rule="evenodd" fill="url(#_ÂÁ_Ï_ÌÌ_È_ËÂÌÚ_174)"/>
          <path d="M155.07,129.74s30,32.4,42.9,35.79,34.38-13.39,32.31-50c9.6,25.37-3.51,53.07-23.92,55.44S155.07,129.74,155.07,129.74Z" fill-rule="evenodd" fill="url(#_ÂÁ_Ï_ÌÌ_È_ËÂÌÚ_174-2)"/>
          <path d="M158.56,208.25s17.82,21.17,33.67,22S215.8,213,216.92,206.89A22.61,22.61,0,0,0,215.47,195s4.4,4.73,3.65,13.21S208,235,190,235.86,158.56,208.25,158.56,208.25Z" fill-rule="evenodd" fill="url(#_ÂÁ_Ï_ÌÌ_È_ËÂÌÚ_174-3)"/>
          <path d="M142.52,131.1c-.38,4.63.15,10.38,2.45,11.61s8.18-.41,10.78-1.64,1.14-6.13,1.14-6.13,6,8.45,6.1,9.55-15.67,1.15-18,1.94S141.23,137.81,142.52,131.1Z" fill-rule="evenodd" fill="url(#_ÂÁ_Ï_ÌÌ_È_ËÂÌÚ_174-4)"/>
          <path d="M178.84,69.64c82.54,15.61,60.13,141.26,0,85.35S123.29,59.12,178.84,69.64Zm-18.45,74.71c-3,.27-15.16,3.14-17.35,0s-.28-22.72,2.59-22.82C149.46,121.4,163.4,144.07,160.39,144.35Zm-18.3,67.92c-7.79,3-55.08,7.1-64.92-45.74-7.84-42.13,17.31-72.38,29.16-74.24,4.8-.75,35.06,2.18,32.88,43.46S149.88,209.28,142.09,212.27Zm75.57.55c-10.66,19.4-22.69,32.24-49.48,7.1s-38.24-91.56,1.64-68.82C177.71,155.58,228.32,193.4,217.66,212.82Zm13.25-10.39c-9.69-.93-24.74-24.33-24.55-26.7.55-7.3,23.26-9.92,28.78-5.64C243.34,176.46,240.94,203.39,230.91,202.43ZM158.82,63.81A92,92,0,0,0,69,175.43v0c.64,1,20.9,32.69,47.27,41.92,26.79,9.37,38.54,3.36,57.94,11.57,9.38,4,13.12,9.31,14.49,13.81A92,92,0,0,0,158.82,63.81Z" fill-rule="evenodd" fill="url(#_ÂÁ_Ï_ÌÌ_È_ËÂÌÚ_178)"/>
          <path d="M188.68,242.76h-4.62s-8.69-18.43-38.25-19.34C145.81,223.42,183.48,223.25,188.68,242.76Z" fill-rule="evenodd" fill="url(#_ÂÁ_Ï_ÌÌ_È_ËÂÌÚ_174-5)"/>
          <path d="M147.87,78.07c-17.71,10.75-16.4,28.24,17.12,39.63s33.89,25.42,42.46,22.51,16.76-33.71-2-51.57S150.85,76.26,147.87,78.07Z" fill="#9f0072" fill-rule="evenodd" opacity="0.3" style="mix-blend-mode: multiply"/>
          <path d="M97.4,101.58c-18.54,18.53-2.92,22,13.84,17s13.85,1.38,17.13,4.48,12.75-9.66,4-23.32S110.7,88.28,97.4,101.58Z" fill="#9f0072" fill-rule="evenodd" opacity="0.3" style="mix-blend-mode: multiply"/>
          <path d="M94.66,133.67C83,141.43,72.8,151.1,79.17,164.78s35.37,25.52,42.64,4.45,0-43.42-5.65-44S96.25,132.61,94.66,133.67Z" fill="#9f0072" fill-rule="evenodd" opacity="0.3" style="mix-blend-mode: multiply"/>
          <path d="M105.59,235.88c-3.82-10.49-7.84-7.92-28.38-18.5s-11.09-19.32-10.35-28.89-.9-9.27-4.18-7.78-11.47,15.85-9.56-15.93,3.55-22,3.55-19S60.8,170.25,63.93,160s6.41,24.49,8.05,29-8.48,1-6.56,13.51,19.13,17.06,25,18.15-2.36-8.28-2.36-8.28,15.88,14,20.67,20.77S105.59,235.88,105.59,235.88Z" fill="#fff" fill-rule="evenodd"/>
          <ellipse cx="160.81" cy="155.34" rx="93.6" ry="91.23" fill="url(#_ÂÁ_Ï_ÌÌ_È_ËÂÌÚ_196)" style="mix-blend-mode: screen"/>
          <path d="M96.62,112c-12.82,1.68-8.84,16.57-5.4,19.14S105,110.87,96.62,112Z" fill="#fff" fill-rule="evenodd"/>
          <path d="M97,140.6c-1.09,2.16-2,4.34,0,6.71S98.08,138.43,97,140.6Z" fill="#fff" fill-rule="evenodd"/>
          <path d="M194.46,85.54c-8-.36-5.28,8.2,4.92,12.21S206.67,86.09,194.46,85.54Z" fill="#fff" fill-rule="evenodd" style="mix-blend-mode: soft-light"/>
          <g opacity="0.3" style="mix-blend-mode: multiply">
            <path d="M165.06,81.24C151.24,82.34,155,88.1,177.29,91S174.07,80.52,165.06,81.24Z" fill="#560015" fill-rule="evenodd"/>
            <path d="M150.25,102.06c-6.65,2.26,3.5,7.32,19.08,9.4S172,94.68,150.25,102.06Z" fill="#560015" fill-rule="evenodd"/>
            <path d="M197.69,122.66c-8.06-1.52-1.4.27,3.79,2.58S201.39,123.36,197.69,122.66Z" fill="#560015" fill-rule="evenodd"/>
            <path d="M196,103.76c-7,1.45-1.82,4.27,2.78,4.46S197.89,103.37,196,103.76Z" fill="#560015" fill-rule="evenodd"/>
            <path d="M117.3,131.1c-6.21-2.58-16.79,17.87-7,29.93S130.27,136.49,117.3,131.1Z" fill="#560015" fill-rule="evenodd"/>
            <path d="M106.31,98.41c-6.47,3.81,4.79,5.49,12.9,3.44S116.09,92.64,106.31,98.41Z" fill="#560015" fill-rule="evenodd"/>
            <path d="M105.14,106c-3.78,3.45-.14,5.47,3.55,2.24S107.05,104.24,105.14,106Z" fill="#560015" fill-rule="evenodd"/>
            <path d="M145.45,77.66c-5.79,2.41,5.22-.35,28.43,2.32s25.5,5.49,26.7,5.55S179.26,63.64,145.45,77.66Z" fill="#560015" fill-rule="evenodd"/>
          </g>
          <path d="M112.11,68.51A24.25,24.25,0,0,0,114.37,65a5.94,5.94,0,0,0,.51-2c0-1.81-1.9-2.45-3.31-2.69a6.52,6.52,0,0,0-2.64,0,10.83,10.83,0,0,1-1.87.36c-.37,0-.51.06-.72-.23s.27-2,.31-2.13a25.25,25.25,0,0,1,8.67-12.89,27.17,27.17,0,0,1,9.58-4.72,37.29,37.29,0,0,1,9.93-1.12,35.48,35.48,0,0,1,6.6.3,4.79,4.79,0,0,1,2,.77,4.84,4.84,0,0,1-1,.1A26.16,26.16,0,0,0,138,42.16a36.53,36.53,0,0,0-6,3.36c-.52.34-2.06,1-1.82,1.92,1.22.16.82,1.5.67,2.47a7.28,7.28,0,0,0,1.5,5.29c.25.35,1.5,1.92.67,2.37-.35.19-1.72-.66-2-.78-1.81-.87-3.56-1.89-5.37-2.73a11.64,11.64,0,0,0-5.8-1.12,8.64,8.64,0,0,0-2.54.65,5.55,5.55,0,0,0-2.24,2.06,18.32,18.32,0,0,0-1.31,2c-.1.17-.6.88-.56,1.08.13.77,1.71.73,2.28.76,1.73.09,3.45-.14,5.12.44.47.16,1.92.63,2.11,1.28a.57.57,0,0,1-.22.67c-.4.34-1.41.48-1.89.78a20.48,20.48,0,0,0-3.31,2.86Z" fill="#fff" fill-rule="evenodd"/>
          <path d="M77.12,106.22a79.37,79.37,0,0,0-4.18,9.32,10.87,10.87,0,0,1-2,3.87,6.24,6.24,0,0,0-.87,1.17c-.81,1.37-1.49,2.92-2.21,4.35a34.77,34.77,0,0,0-3.31,15.5c0,6.3.72,12.68,1.27,18.95a17.67,17.67,0,0,1-.36,5.81,3.62,3.62,0,0,1-.66,1.65,4.63,4.63,0,0,1-2.7.59c-1.13-.15-3-.78-3.47-1.92a21.31,21.31,0,0,1-.88-3A23.78,23.78,0,0,1,56.65,157c-.06-1.35-.39-2.78-.32-4.13.1-1.88.5-3.71.46-5.61-.15-7.29-2.61-14.76-5.55-21.36-1.09-2.43-2.52-6.27-5.69-6.46-1.64-.1-2.73.85-3.85,2A41.66,41.66,0,0,0,37,127.06c-1.64,2.33-2.95,4.83-4.47,7.24-1.1,1.73-2.28,3.36-3.5,5-.83,1.11-1.74,2.15-2.6,3.2a12.35,12.35,0,0,0-1.31,2.59,26.93,26.93,0,0,0-1.89,14.6,21.8,21.8,0,0,0,1.81,6.9,13.41,13.41,0,0,0,2.42,3.89,4.51,4.51,0,0,0,2.6,1.27,8.39,8.39,0,0,0,3.78-1c3.42-1.43,6.43-3.67,9.86-5.11,1.35-.56,3.29-1.34,4.25.29.86,1.47.32,3.37.19,4.94,0,.32-.32,2.17.37,2.07.34,0,.44-.5.6-.76.55-.89,1.12-1.79,1.62-2.72s1-1.65,1.49-2.47a4,4,0,0,0,.15-2.66c-.14-1.32-1.56-12.66-3.39-12.19a10.74,10.74,0,0,1-2.36,5.06c-.69.72-2.9,3-2.45.4a25.06,25.06,0,0,1,2.56-6.9,14.8,14.8,0,0,1,3-4.5c.33-.29.92-.78,1.39-.62s.85,1.1,1,1.35c1.11,1.61,1.09,3.34,1.4,5.19.74,4.38,1.95,8.63,2.51,13,.23,1.86.45,3.72.62,5.6a8.39,8.39,0,0,1-.24,4,10.22,10.22,0,0,1-2,2.82c-1.19,1.37-2.5,2.6-3.72,3.94-1,1.14-3.4,3.94-2.47,5.75.51,1,1.53.92,2.48.76,2.74-.48,5-2.24,7.55-3.31,2.22-1,5.34-2.59,7.65-1.23.24.14.47-.07.54.32,0,.11-.26.41-.3.51a15.22,15.22,0,0,0-1.07,4.46c-.12,1.8,1,1.17,2.11.77a4.66,4.66,0,0,1,3-.29,14.4,14.4,0,0,1,3.88,2.24,13.05,13.05,0,0,1,3.95,4.94c-.55-.77-.88-1.78-1.38-2.6a62.1,62.1,0,0,1-5.14-10A60.07,60.07,0,0,1,67.82,168c-.36-3.81-.29-7.67-.29-11.49a30.82,30.82,0,0,1,.3-6.3Z" fill="#fff" fill-rule="evenodd"/>
          <path d="M239.92,92.29c-.91-1.4-2.94-3.47-3.18-5.22-.16-1.22,1-3.71,1.37-4.86.57-1.78,2.3-6.45,4.46-6.67.58-.06,3.34.93,3.8,1.59s-.06,2.21.14,3.06c.52,2.28,2.29,4.5,3.2,6.66.71,1.68,2.3,4.29,1.94,6.19-.78,4.15-8.08-.4-10.27-.75Z" fill="#fff" fill-rule="evenodd"/>
          <path d="M258.87,187a21.49,21.49,0,0,0-3.18,5.43c1.5,1.62,3.4-.26,4.62-1s1.88-.9,2.45-2.2,0-1.57-.24-2.92Z" fill="#fff" fill-rule="evenodd"/>
          <path d="M184,255.18c-.5.22-8.37,3.62-7.93,5.35a14.34,14.34,0,0,0,6.25.68c1.76-.06,3.76-2,2.22-3.85Z" fill="#fff" fill-rule="evenodd"/>
          <ellipse cx="43.48" cy="152.71" rx="41.89" ry="49.86" fill="url(#_ÂÁ_Ï_ÌÌ_È_ËÂÌÚ_217)" style="mix-blend-mode: screen"/>
          <ellipse cx="244.22" cy="86.31" rx="31.76" ry="37.8" fill="url(#_ÂÁ_Ï_ÌÌ_È_ËÂÌÚ_217-2)" style="mix-blend-mode: screen"/>
          <path d="M211.93,251.08c2.29,7.66-9.49,17.93-26.3,22.95s-32.29,2.87-34.57-4.79,9.49-17.93,26.3-22.94S209.65,243.43,211.93,251.08Z" fill-rule="evenodd" fill="url(#_ÂÁ_Ï_ÌÌ_È_ËÂÌÚ_217-3)" style="mix-blend-mode: screen"/>
          <ellipse cx="125.39" cy="49.61" rx="52.54" ry="44.14" transform="translate(-8 69.34) rotate(-30)" fill="url(#_ÂÁ_Ï_ÌÌ_È_ËÂÌÚ_227)" style="mix-blend-mode: screen"/>
          <ellipse cx="43.48" cy="152.71" rx="29.47" ry="35.07" fill="url(#_ÂÁ_Ï_ÌÌ_È_ËÂÌÚ_226)" style="mix-blend-mode: screen"/>
          <path d="M259.35,85.16c0,10-6.77,18-15.13,18s-15.14-8.07-15.14-18,6.77-18,15.14-18S259.35,75.21,259.35,85.16Z" fill-rule="evenodd" fill="url(#_ÂÁ_Ï_ÌÌ_È_ËÂÌÚ_226-2)" style="mix-blend-mode: screen"/>
          <path d="M131.25,59.77c-8.62,5-19,3.14-23.17-4.1s-.59-17.14,8-22.12,19-3.14,23.17,4.1S139.87,54.79,131.25,59.77Z" fill-rule="evenodd" fill="url(#_ÂÁ_Ï_ÌÌ_È_ËÂÌÚ_226-3)" style="mix-blend-mode: screen"/>
          <path d="M159.64,44.75c3.18,10.68-9.27,23.8-27.8,29.32s-36.13,1.34-39.31-9.34,9.27-23.8,27.8-29.31S156.47,34.08,159.64,44.75Z" fill-rule="evenodd" fill="url(#_ÂÁ_Ï_ÌÌ_È_ËÂÌÚ_217-4)" style="mix-blend-mode: screen"/>
          <path d="M108.37,46.73c-1.77-.82-3.94-1.73-5-3.57.31-.68,1.45-.77,2.07-1,.87-.28,2.71-1.31,3.67-.95,1.6.58.55,4.35-.4,5.13Z" fill="#fff" fill-rule="evenodd"/>
          <path d="M87,22a7.54,7.54,0,0,0-1.59,2.33c.47.6,1.94.21,2.51-.12.4-.24,1-.55,1-1.11s-.79-.82-.78-1.46Z" fill="#fff" fill-rule="evenodd"/>
          <path d="M16.94,119.5a9.89,9.89,0,0,0-1.1,4.66c0,.8-.21,1.8.82,1.92A18,18,0,0,0,19.08,125l3.2-1.49c1.69-.86,2.95-1.63,3.47-3.55,1.35-4.88-1.08-11.23-6-13.17-5.32-2.09-4.67,6.42-4.62,9.43Z" fill="#fff" fill-rule="evenodd"/>
          <path d="M5.05,107.61A7.32,7.32,0,0,1,1,105c-.55-.66-1.68-1.49-.51-2.06.94-.45,2.78.76,3.42,1.34a2.88,2.88,0,0,1,1.12,1.91Z" fill="#fff" fill-rule="evenodd"/>
          <path d="M276,153.87a1.2,1.2,0,0,1-.67,1.12c-.31-.85.14-2.72,1.4-2.19s1.23,2.89,1.11,3.9c-.09.71-.48,3-1.47,3.05-.67,0-1.5-1.08-1.77-1.53-.55-.94-.84-2.73-.06-3.62Z" fill="#fff" fill-rule="evenodd"/>
          <path d="M307.71,143.67c-1.1.33-2.65.44-3.31,1.53-.48.79-.46,1.16.38,1.56,1.52.72,3.55-.17,3.29-2Z" fill="#fff" fill-rule="evenodd"/>
          <path d="M65.46,137.11a5.68,5.68,0,0,1-2.66,1c-1-1.44-2.34-2.6-3.28-4.13A20.68,20.68,0,0,1,56.4,124a16.89,16.89,0,0,1,2.08-8,7,7,0,0,1,6.43-3.41c2.6,0,6.65,1.32,8.23,3.68.41.6.3.24.06.9-.15.41-.31.8-.45,1.21a25.24,25.24,0,0,0-.64,3.45c-.13.75-.21,2.62-.72,3.23-.7.85-.93,2.31-2,2.33-2.79.07-1.12.48-1.52,3.08S64.43,135.35,65.46,137.11Z" fill="#fff" fill-rule="evenodd"/>
          <path d="M58,105.22a7,7,0,0,0-1.36,2.6,1.36,1.36,0,0,0,.07,1.23c.42.57,1.29.62,1.9.81a10.05,10.05,0,0,0,2.51.85,2.33,2.33,0,0,0,2.53-1.94,5.51,5.51,0,0,0-.57-2.69,3.39,3.39,0,0,0-2.16-1.77Z" fill="#fff" fill-rule="evenodd"/>
          <path d="M40.92,187.77a8.68,8.68,0,0,1-3.81,4.74c-2,1.06-4.88,1.09-6.32-.93-.8-1.13-.24-2.28.72-3.13a5.19,5.19,0,0,1,3.61-1.38c1.79,0,3.59.32,5.39.35C41.5,187.43,42.49,187.4,40.92,187.77Z" fill="#fff" fill-rule="evenodd"/>
        </g>
      </g>
    </g>
  </g>
</svg>
